<?xml version="1.0" encoding="UTF-8"?>
<svg version="1.1" xmlns="http://www.w3.org/2000/svg" width="3000" height="4160">
<path d="M0 0 C23.14093192 -0.04687352 46.28185593 -0.08206369 69.42282581 -0.10362434 C80.16935126 -0.11390468 90.91584709 -0.12790248 101.66235352 -0.15087891 C111.03703145 -0.17091263 120.41168792 -0.18373995 129.78638667 -0.18817699 C134.74290578 -0.19076758 139.69936351 -0.19678775 144.65586281 -0.21146011 C149.3368291 -0.2252024 154.01770968 -0.22918964 158.69869423 -0.22621536 C160.40164153 -0.22675818 162.10459219 -0.23063522 163.80752182 -0.23841095 C179.27202312 -0.30546057 194.78972823 0.55302015 209.875 4.1875 C210.77863281 4.39963135 211.68226562 4.6117627 212.61328125 4.83032227 C226.44535826 8.19601576 239.91934967 12.78617045 252.89453125 18.640625 C256.06259468 20.07714516 256.06259468 20.07714516 259.6953125 21.2734375 C265.18241217 23.30274256 270.0664254 26.36719373 275.0625 29.375 C276.49432617 30.22191406 276.49432617 30.22191406 277.95507812 31.0859375 C283.15097423 34.18411157 288.10685904 37.4470992 293 41 C294.093125 41.5775 295.18625 42.155 296.3125 42.75 C300.53971422 45.09006501 303.85848513 48.36692098 307.38671875 51.6328125 C309.89562371 53.90545287 312.4687185 56.0277209 315.125 58.125 C321.59016905 63.24452353 327.56109149 68.32177332 332.8828125 74.63671875 C335.1032021 77.11519792 337.43873585 79.42145916 339.82177734 81.74169922 C344.77644435 86.56850385 349.24043048 91.1766529 352.85546875 97.12890625 C354.09868483 99.25280002 354.09868483 99.25280002 356.375 101.9375 C358 104 358 104 358 106 C358.99 106.33 359.98 106.66 361 107 C362.60644587 109.03424939 364.06449074 111.03897376 365.5 113.1875 C365.89058594 113.75275391 366.28117187 114.31800781 366.68359375 114.90039062 C369.11762061 118.47767253 371.06489441 122.12486488 373 126 C375.06538191 129.40543722 377.24247527 132.74097213 379.41601562 136.078125 C381.89545983 139.96221697 383.75862868 143.51142575 385 148 C385.66 148 386.32 148 387 148 C389.15337591 152.15293926 391.14124504 156.25513855 392.8125 160.625 C394.36197422 164.59739723 396.16341208 168.33964065 398.125 172.125 C401.43630703 178.65463999 404.35386352 185.31260845 407.1875 192.0625 C407.81132568 193.53323975 407.81132568 193.53323975 408.44775391 195.03369141 C411.00420562 201.19106749 413.11540167 207.38143138 415.01928711 213.76928711 C415.96282845 216.87754765 416.9823467 219.9455616 418.04296875 223.015625 C425.66972557 245.12791112 433.18892515 267.84459323 436.2734375 291.1015625 C436.95500105 296.07259939 437.99635511 300.9502125 439.03295898 305.85766602 C444.84208393 333.466019 448.54632158 361.42767974 451.25 389.5 C451.32704163 390.28765747 451.40408325 391.07531494 451.48345947 391.88684082 C452.06478042 397.9192135 452.54653413 403.95679179 453 410 C453.1308046 411.67535324 453.1308046 411.67535324 453.26425171 413.384552 C455.16801913 438.45804616 455.34350103 463.50009818 455.31567383 488.63647461 C455.31105378 493.15447984 455.31794192 497.6722151 455.33618164 502.19018555 C455.45494255 531.92258246 454.68188002 561.38092076 452 591 C451.83943619 592.77478226 451.83943619 592.77478226 451.67562866 594.5854187 C451.113545 600.57092423 450.44477174 606.53631743 449.6875 612.5 C449.53267654 613.75988739 449.53267654 613.75988739 449.37472534 615.04522705 C446.15263245 641.21445707 441.45349095 667.03284568 435.69677734 692.75878906 C434.93809603 696.28795973 434.26512338 699.8289775 433.58984375 703.375 C432.08020307 710.97918816 430.01839722 718.34096943 427.75 725.75 C427.55368988 726.39819702 427.35737976 727.04639404 427.15512085 727.7142334 C424.28741572 737.17726886 421.14086277 746.49530091 417.59375 755.7265625 C416.51552453 758.55176994 415.542205 761.38221827 414.65625 764.2734375 C409.54497783 780.92024136 401.74440986 796.4876722 393.22973633 811.64550781 C392.15982104 813.69400156 391.36610519 815.61110979 390.6875 817.8125 C388.61111998 823.80820088 384.64946675 828.9855829 381.15771484 834.23388672 C378.82253143 837.79624792 376.62688088 841.44904178 374.41015625 845.0859375 C373.94480469 845.71757813 373.47945312 846.34921875 373 847 C372.34 847 371.68 847 371 847 C370.77183594 847.83917969 370.54367187 848.67835938 370.30859375 849.54296875 C368.75598372 853.64464003 366.62999189 856.78914533 364.0625 860.3125 C363.61970703 860.94478516 363.17691406 861.57707031 362.72070312 862.22851562 C359.38028665 866.87323778 359.38028665 866.87323778 356 868 C354.97442631 869.79421516 354.97442631 869.79421516 354 872 C348.62409923 880.35231412 342.19534412 886.96630664 334.84912109 893.5715332 C331.47517772 896.61506453 328.34242003 899.6783732 325.3984375 903.14453125 C322.43306154 906.61379437 319.43729689 909.24766419 315.75 911.9375 C314.73421875 912.68902344 313.7184375 913.44054688 312.671875 914.21484375 C310 916 310 916 307 917 C306.32011352 918.32664109 305.65457689 919.66068998 305 921 C303.4152832 922.40039062 303.4152832 922.40039062 301.55078125 923.65625 C300.86693359 924.12160156 300.18308594 924.58695313 299.47851562 925.06640625 C298.76373047 925.53949219 298.04894531 926.01257812 297.3125 926.5 C296.61705078 926.97308594 295.92160156 927.44617187 295.20507812 927.93359375 C290.90397486 930.83312368 286.52153379 933.46043898 282 936 C280.69427395 936.77340568 279.3909832 937.55093396 278.08984375 938.33203125 C255.63227351 951.7732392 255.63227351 951.7732392 244 955 C242.27885817 955.69839646 240.57009893 956.42807494 238.875 957.1875 C223.87028533 963.52199349 208.29388155 968.06371399 192.38525391 971.48291016 C190.85149938 971.81540679 189.32183202 972.16769956 187.79833984 972.54443359 C170.7407569 976.49648943 152.22533984 975.14408474 134.85261463 975.12226619 C131.18417244 975.11879076 127.51573298 975.12121053 123.84729016 975.12284368 C117.43427573 975.12490539 111.02127063 975.12329437 104.60825729 975.11920547 C95.07250787 975.11314255 85.53676426 975.11287225 76.00101326 975.11374746 C59.95633042 975.11505806 43.91165171 975.11173253 27.86697006 975.10573006 C11.98939875 975.09980537 -3.88817084 975.09596257 -19.76574326 975.09487724 C-20.75435754 975.0948085 -21.74297183 975.09473976 -22.76154413 975.09466894 C-27.78257494 975.09433059 -32.80360575 975.09402921 -37.82463656 975.09374207 C-73.35363258 975.09164376 -108.88262634 975.08491231 -144.41162109 975.07543945 C-178.91943347 975.06624952 -213.42724524 975.0591686 -247.93505859 975.05493164 C-248.99944704 975.05480011 -250.06383549 975.05466859 -251.16047814 975.05453308 C-261.84987252 975.05321451 -272.53926691 975.05193871 -283.22866131 975.05069422 C-305.00260977 975.04815826 -326.77655819 975.04533701 -348.55050659 975.04234314 C-349.55155446 975.04220585 -350.55260234 975.04206856 -351.58398499 975.04192711 C-403.35218412 975.03480196 -455.12038221 975.02344157 -506.88858032 975.0111084 C-507.61656226 975.01093499 -508.3445442 975.01076159 -509.09458619 975.01058293 C-523.39639082 975.00716862 -537.69819541 975.00356637 -552 975 C-552 997.77 -552 1020.54 -552 1044 C-391.29 1044 -230.58 1044 -65 1044 C-62.98155875 1322.54489239 -62.98155875 1322.54489239 -89.1328125 1356.48046875 C-90.97489618 1358.9661256 -92.46550239 1361.50411687 -94 1364.1875 C-98.80753372 1371.93545551 -105.68066438 1377.99803754 -112.21142578 1384.27661133 C-115.05186675 1387.0135309 -117.8582844 1389.78083133 -120.5546875 1392.66015625 C-123.49415484 1395.78225322 -126.28868274 1397.80382557 -130.11328125 1399.828125 C-132.33825359 1401.21009539 -134.08973934 1402.83301064 -136 1404.625 C-145.15573426 1412.99952826 -156.04802937 1419.28449195 -167 1425 C-168.73029899 1425.95628738 -170.45943626 1426.91467929 -172.1875 1427.875 C-174.12197429 1428.922275 -176.05972242 1429.96351623 -178 1431 C-179.11246094 1431.59554688 -180.22492187 1432.19109375 -181.37109375 1432.8046875 C-193.51632982 1439.16107273 -206.22044695 1444.08125776 -219 1449 C-220.15161621 1449.44730469 -221.30323242 1449.89460938 -222.48974609 1450.35546875 C-245.57944185 1459.29300245 -245.57944185 1459.29300245 -256.3371582 1461.53369141 C-261.83213373 1462.6791598 -267.18768586 1464.16347252 -272.58154297 1465.71557617 C-285.54672267 1469.43483591 -298.5491806 1472.55711013 -311.75 1475.3125 C-312.5364389 1475.47721802 -313.32287781 1475.64193604 -314.13314819 1475.81164551 C-343.73402961 1481.98209446 -343.73402961 1481.98209446 -356.625 1482.9375 C-363.83027976 1483.54634009 -370.97556149 1484.37433324 -378.13867188 1485.36206055 C-412.87688002 1490.13107357 -447.97424294 1492.58137129 -483 1494 C-483.71899475 1494.02922546 -484.4379895 1494.05845093 -485.17877197 1494.08856201 C-558.40363257 1497.00818734 -631.95627379 1494.61407549 -704.60961914 1484.83938599 C-710.08752897 1484.10635524 -715.57215984 1483.48062439 -721.06738281 1482.89038086 C-743.09208294 1480.47929737 -764.65808343 1475.7380484 -786.125 1470.375 C-786.87786285 1470.18717957 -787.63072571 1469.99935913 -788.40640259 1469.80584717 C-796.71909848 1467.7206919 -804.91374234 1465.44001625 -813.08666992 1462.85180664 C-815.71843612 1462.08232434 -818.28370389 1461.51498542 -820.98046875 1461.03515625 C-827.31974885 1459.86131011 -833.26660826 1457.63498356 -839.3125 1455.4375 C-841.15050171 1454.77584839 -841.15050171 1454.77584839 -843.02563477 1454.10083008 C-852.20553782 1450.75382223 -861.19532871 1447.07530631 -870.12109375 1443.10546875 C-873.77702999 1441.48475671 -877.47812897 1440.07345952 -881.23046875 1438.69140625 C-888.42975278 1435.94904705 -895.12761738 1432.44472608 -901.875 1428.75 C-903.11679149 1428.07563516 -904.35865419 1427.40140142 -905.60058594 1426.72729492 C-909.07634214 1424.8347083 -912.54003912 1422.92131468 -916 1421 C-916.81952148 1420.54512207 -917.63904297 1420.09024414 -918.48339844 1419.62158203 C-927.32234474 1414.66019485 -935.35879296 1408.90157609 -943.38671875 1402.734375 C-946.84247631 1400.0889392 -950.40109708 1397.66490343 -954.10546875 1395.37890625 C-956.68023681 1393.50489981 -958.77012705 1391.27237786 -961 1389 C-963.12469437 1386.97701791 -965.28026854 1384.98818525 -967.4375 1383 C-967.98470703 1382.49210937 -968.53191406 1381.98421875 -969.09570312 1381.4609375 C-971.71214192 1379.04576323 -974.34617935 1376.70066971 -977.12109375 1374.46875 C-980.00041047 1371.99964801 -982.26805044 1369.46492595 -984.625 1366.5 C-985.35976562 1365.5821875 -986.09453125 1364.664375 -986.8515625 1363.71875 C-988.22943967 1361.97510907 -989.59992907 1360.22558957 -990.9609375 1358.46875 C-992.9724529 1355.93341634 -992.9724529 1355.93341634 -995.44921875 1353.66796875 C-998.49934604 1350.4777131 -1000.59967901 1347.10853735 -1002.8125 1343.3125 C-1003.21919922 1342.63638672 -1003.62589844 1341.96027344 -1004.04492188 1341.26367188 C-1007 1336.27232143 -1007 1336.27232143 -1007 1334 C-1007.66 1334 -1008.32 1334 -1009 1334 C-1011.10217605 1330.11406307 -1013.17803901 1326.21461925 -1015.25 1322.3125 C-1016.12978516 1320.68731445 -1016.12978516 1320.68731445 -1017.02734375 1319.02929688 C-1020.99101729 1311.52503855 -1023.71257889 1304.15704299 -1026 1296 C-1026.43658165 1294.6642107 -1026.88253912 1293.33139302 -1027.34375 1292.00390625 C-1029.86905668 1284.48770631 -1031.77472144 1276.98001461 -1033.25 1269.1875 C-1033.41306641 1268.36000244 -1033.57613281 1267.53250488 -1033.74414062 1266.67993164 C-1036.51871889 1251.11720409 -1036.14596958 1234.99692903 -1036.0957489 1219.24365234 C-1036.09347996 1217.32846529 -1036.09165863 1215.41327766 -1036.09023982 1213.49808979 C-1036.08507846 1208.29139718 -1036.0735421 1203.08473618 -1036.06084073 1197.87805724 C-1036.04821325 1192.24047241 -1036.0415683 1186.60287983 -1036.03408813 1180.96528625 C-1036.01845474 1169.94109308 -1035.99712037 1158.91691819 -1035.97351011 1147.89273947 C-1035.95433367 1138.92317523 -1035.93686131 1129.95360925 -1035.92057228 1120.98403931 C-1035.88166859 1099.64035877 -1035.84159272 1078.29668251 -1035.7946043 1056.95301819 C-1035.79310586 1056.27192337 -1035.79160742 1055.59082855 -1035.79006358 1054.88909449 C-1035.7824656 1051.43781974 -1035.77484988 1047.98654503 -1035.76722922 1044.53527033 C-1035.76571634 1043.84996017 -1035.76420345 1043.16465001 -1035.76264472 1042.45857288 C-1035.75958513 1041.07271115 -1035.75652424 1039.68684943 -1035.75346206 1038.30098771 C-1035.70591194 1016.75486717 -1035.66639375 995.20874471 -1035.63305664 973.66259766 C-1035.5955051 949.39770545 -1035.55131461 925.13284054 -1035.49788028 900.86797714 C-1035.46977932 888.04201305 -1035.44458731 875.21605922 -1035.4272213 862.39007568 C-1035.41237217 851.46830468 -1035.39065904 840.54657298 -1035.36034616 829.62483352 C-1035.34510086 824.06401846 -1035.33284571 818.50324345 -1035.32924461 812.94240761 C-1035.30078794 774.83860428 -1033.93232653 738.28563544 -1023.62695312 701.33056641 C-1022.8742031 698.53237649 -1022.28111062 695.710694 -1021.6875 692.875 C-1018.53630793 680.04379877 -1011.96025937 667.72328659 -1006 656 C-1005.64454102 655.28424805 -1005.28908203 654.56849609 -1004.92285156 653.83105469 C-1000.48424762 644.89904922 -995.74088172 636.76494015 -989.4375 629.0234375 C-987.15633455 626.19391497 -985.08606167 623.28676761 -983 620.3125 C-976.83189852 611.99169764 -969.17250158 604.97481459 -961.73657227 597.80249023 C-959.81446436 595.91433613 -959.81446436 595.91433613 -958 593 C-956.33656779 591.99462889 -954.66906953 590.99598427 -953 590 C-950.3184331 587.94388848 -947.72506449 585.78281053 -945.125 583.625 C-931.96145525 572.72588355 -931.96145525 572.72588355 -924.125 569.0625 C-920.46397356 567.28622421 -917.07169932 565.47309779 -913.75 563.125 C-901.57302893 554.78996098 -887.78782085 549.77703152 -873.92822266 545.00878906 C-870.99229108 543.99734424 -868.06469833 542.96389328 -865.13671875 541.9296875 C-840.47034315 533.3306245 -815.92345362 528.56040116 -790 526 C-789.25002438 525.91706867 -788.50004876 525.83413733 -787.7273466 525.74869293 C-777.54160552 524.74153201 -767.35927485 524.8528005 -757.13581848 524.85523987 C-755.01488148 524.85210206 -752.89394508 524.84852632 -750.77300948 524.84455246 C-744.965174 524.83489541 -739.15734835 524.83131067 -733.34950602 524.82870948 C-727.07719178 524.82480283 -720.80488612 524.81516593 -714.53257751 524.80615234 C-703.66647805 524.79123366 -692.80038007 524.77967519 -681.93427467 524.77020454 C-665.47002373 524.755751 -649.00578984 524.73298718 -632.5415511 524.70853943 C-625.92490348 524.69875068 -619.30825548 524.68922893 -612.69160748 524.67970943 C-611.95653367 524.67865067 -611.22145987 524.6775919 -610.4641111 524.67650105 C-592.97908771 524.65136716 -575.49406118 524.62886541 -558.0090332 524.60717773 C-557.24435799 524.6062273 -556.47968277 524.60527686 -555.69183557 524.60429762 C-537.86627499 524.58216404 -520.04071347 524.56128883 -502.21514893 524.54260254 C-501.44930473 524.54179879 -500.68346053 524.54099504 -499.89440893 524.54016693 C-496.03282111 524.53611626 -492.17123327 524.53207465 -488.30964544 524.52803367 C-487.54647104 524.52723468 -486.78329665 524.52643569 -485.99699575 524.52561248 C-484.45661645 524.52400018 -482.91623714 524.52238935 -481.37585782 524.52078002 C-455.87020819 524.49409108 -430.36457409 524.46069158 -404.85894284 524.42000187 C-401.24949013 524.41425293 -397.64003729 524.40859417 -394.03058434 524.40299797 C-392.96519123 524.40134526 -392.96519123 524.40134526 -391.87827504 524.39965917 C-380.49527769 524.38222418 -369.11228496 524.37200879 -357.72927704 524.36474552 C-346.26608981 524.35731648 -334.8029347 524.3426941 -323.3397638 524.32131977 C-317.14128335 524.30999228 -310.94284216 524.30179015 -304.74435043 524.30232811 C-270.81296363 524.48490773 -270.81296363 524.48490773 -237 522 C-236.30541518 521.92045456 -235.61083036 521.84090912 -234.89519751 521.75895321 C-231.24786182 521.33620114 -227.6246646 520.83605736 -224 520.25 C-222.94731934 520.08371094 -221.89463867 519.91742187 -220.81005859 519.74609375 C-205.81197247 517.26832347 -190.97643656 513.83736339 -176.60693359 508.86108398 C-174.40814701 508.13481312 -172.26124135 507.54729621 -170 507.0625 C-156.06898855 503.72931321 -141.33922375 495.98291956 -129.25390625 488.35546875 C-126.89578888 486.93732884 -124.4939962 485.78526716 -122 484.625 C-117.33699874 482.34805866 -113.57533805 479.44620044 -109.59765625 476.13671875 C-106.7942194 473.83073386 -103.92252006 471.6528342 -101 469.5 C-100.0925 468.8296875 -99.185 468.159375 -98.25 467.46875 C-96 466 -96 466 -94 466 C-93.67 465.01 -93.34 464.02 -93 463 C-91.64453125 461.66796875 -91.64453125 461.66796875 -89.8125 460.1875 C-78.51630062 450.55131559 -68.92311389 439.8242248 -60 428 C-58.83411109 426.58269319 -57.66753717 425.16594933 -56.5 423.75 C-51.56714763 417.40606727 -47.55174304 410.37206975 -43.46679688 403.46459961 C-42.449002 401.75443995 -41.41243798 400.05536624 -40.36132812 398.36547852 C-35.13757512 389.79167805 -31.28968313 380.82958086 -27.5 371.5625 C-27.1716214 370.76431854 -26.8432428 369.96613708 -26.50491333 369.14376831 C-15.8470103 343.19949287 -9.32776856 317.7161884 -4.75 290 C-4.59893799 289.09604492 -4.44787598 288.19208984 -4.29223633 287.26074219 C-1.35835497 268.5487679 -0.69729121 249.9346912 -0.68115234 231.02416992 C-0.67183066 228.48908171 -0.66165875 225.95399651 -0.65071106 223.41891479 C-0.62922128 218.00738109 -0.61351461 212.59588251 -0.60334396 207.18431664 C-0.58862932 199.3605427 -0.56305878 191.53683233 -0.53501268 183.71309618 C-0.48977398 171.01325625 -0.45306562 158.31340704 -0.421875 145.61352539 C-0.39159474 133.2918943 -0.35720173 120.97028576 -0.31738281 108.64868164 C-0.31492126 107.88654097 -0.31245972 107.1244003 -0.30992357 106.33916446 C-0.29754714 102.51494125 -0.28509096 98.69071831 -0.27259517 94.86649549 C-0.16937142 63.24436104 -0.08020074 31.62220164 0 0 Z M-329 1185 C-329.763125 1185.433125 -330.52625 1185.86625 -331.3125 1186.3125 C-346.52062513 1195.86178787 -355.8543604 1216.06532298 -360.04296875 1232.953125 C-364.74519686 1254.18747955 -362.05855189 1277.88324111 -350.375 1296.5625 C-349.58395354 1297.70876159 -348.79232988 1298.85462517 -348 1300 C-347.32256011 1301.20232653 -346.6556845 1302.41067231 -346 1303.625 C-341.33798254 1311.49215447 -335.11537851 1316.3763974 -328 1322 C-326.83017578 1322.96873047 -326.83017578 1322.96873047 -325.63671875 1323.95703125 C-308.16769313 1338.19909654 -284.9428917 1341.52491215 -263 1340 C-257.1813843 1339.2119178 -251.61212957 1337.69422779 -246 1336 C-244.99710938 1335.71125 -243.99421875 1335.4225 -242.9609375 1335.125 C-231.61806931 1331.46390133 -222.32243379 1324.93198059 -214.2109375 1316.30859375 C-212.3084851 1314.32211076 -210.40411077 1312.6353908 -208.25 1310.9375 C-194.42076334 1299.24080918 -187.68759343 1275.89804173 -186.19140625 1258.59765625 C-184.76549999 1234.27306356 -193.53481487 1210.69700488 -209.625 1192.55029297 C-213.40274343 1188.45572986 -217.27527546 1184.97784363 -222 1182 C-223.22589844 1181.16275391 -223.22589844 1181.16275391 -224.4765625 1180.30859375 C-254.57865585 1160.22607326 -302.0132562 1156.497147 -329 1185 Z " fill="#FFD242" transform="translate(2467,582)"/>
<path d="M0 0 C4.21879411 0.00008073 8.43747841 -0.00679023 12.65625 -0.02050781 C40.29192366 -0.1088528 67.78971633 0.39891313 95.37109375 2.18530273 C96.549599 2.26100494 97.72810425 2.33670715 98.94232178 2.41470337 C105.48798061 2.84824701 112.02384658 3.36141124 118.55859375 3.93530273 C119.98362213 4.05785934 119.98362213 4.05785934 121.43743896 4.18289185 C152.11038848 6.84721944 182.62111715 11.01675137 212.8996582 16.58837891 C215.46052361 17.02872745 218.01107256 17.42835252 220.58276367 17.79199219 C232.43888967 19.49142178 243.89888189 22.12648855 255.46899414 25.20898438 C258.43148008 25.99724033 261.3979002 26.7690384 264.36523438 27.53881836 C274.07364907 30.08122249 283.65650147 32.81863414 293.14717102 36.08526611 C297.5888357 37.61205584 302.03805976 38.96044831 306.57421875 40.18920898 C313.36257392 42.08388391 319.78652798 44.59742986 326.26806641 47.33935547 C328.13086787 48.12693517 329.99848723 48.90207168 331.8671875 49.67553711 C338.04145523 52.25744396 344.07059327 54.9798364 350.02075195 58.04052734 C352.43200911 59.21497264 354.86420234 60.1998889 357.3671875 61.16186523 C362.63527032 63.21393735 367.5050643 65.80308346 372.43359375 68.56030273 C373.26697266 69.01663086 374.10035156 69.47295898 374.95898438 69.94311523 C379.90940467 72.68607185 384.65177854 75.62102993 389.31225586 78.83251953 C391.44113673 80.23132529 393.61726321 81.43779905 395.87109375 82.62280273 C399.88394851 84.80596206 403.35982286 87.37304602 406.91796875 90.22827148 C409.71501796 92.45967539 412.56770955 94.6055903 415.43359375 96.74780273 C416.44679688 97.50706055 417.46 98.26631836 418.50390625 99.04858398 C420.24334108 100.3448658 421.98699762 101.6355427 423.73828125 102.91577148 C424.42148438 103.4172168 425.1046875 103.91866211 425.80859375 104.43530273 C426.38480469 104.85295898 426.96101563 105.27061523 427.5546875 105.70092773 C430.00200351 107.7008849 432.15815477 109.92949013 434.37109375 112.18530273 C435.716875 113.53108398 435.716875 113.53108398 437.08984375 114.90405273 C439.85026042 117.6644694 442.61067708 120.42488607 445.37109375 123.18530273 C446.22574219 124.02061523 447.08039063 124.85592773 447.9609375 125.71655273 C450.29287693 128.10518437 452.37185614 130.5620183 454.43359375 133.18530273 C455.08457031 134.01030273 455.73554688 134.83530273 456.40625 135.68530273 C457.37884766 136.92280273 457.37884766 136.92280273 458.37109375 138.18530273 C459.48291016 139.51561523 459.48291016 139.51561523 460.6171875 140.87280273 C462.37109375 143.18530273 462.37109375 143.18530273 462.37109375 145.18530273 C463.36109375 145.51530273 464.35109375 145.84530273 465.37109375 146.18530273 C469.48676869 151.12186366 472.33534592 156.92980803 475.10546875 162.68920898 C476.32128881 165.08707633 477.67318105 167.29694469 479.12109375 169.56030273 C497.16190141 199.50432369 501.57291723 234.2585182 501.46684265 268.57525635 C501.46457688 270.52381367 501.4627543 272.47237155 501.46133357 274.42092967 C501.45614443 279.74765321 501.44459371 285.07434644 501.43193448 290.40105677 C501.41935805 296.15731951 501.41267426 301.91358965 501.40518188 307.66986084 C501.38951304 318.9388502 501.36817674 330.20782191 501.34460386 341.47679725 C501.32545749 350.64436748 501.30797794 359.81193938 501.29166603 368.97951508 C501.25274207 390.7741777 501.21263338 412.5688364 501.16569805 434.36348343 C501.16419961 435.05977052 501.16270117 435.75605762 501.16115733 436.47344432 C501.15355891 440.0020089 501.14594324 443.53057344 501.13832297 447.05913797 C501.13605364 448.11019255 501.13605364 448.11019255 501.13373847 449.18248055 C501.13067889 450.59947395 501.127618 452.01646734 501.12455581 453.43346074 C501.07702353 475.45522433 501.03750262 497.47698983 501.00415039 519.4987793 C500.96661255 544.27926511 500.92242422 569.05972707 500.86897403 593.84018397 C500.84085129 606.94563041 500.81566356 620.05106675 500.79831505 633.15653229 C500.78347696 644.319685 500.76177802 655.48279914 500.73143991 666.6459209 C500.71617662 672.33201289 500.70393365 678.01806549 500.70033836 683.70417786 C500.6614776 737.2736839 500.6614776 737.2736839 496.49609375 760.99780273 C496.32029785 762.02800537 496.14450195 763.05820801 495.96337891 764.11962891 C495.60697524 766.18418566 495.24506703 768.24780175 494.87695312 770.31030273 C494.4138907 772.94207062 493.98955917 775.57692733 493.57421875 778.21655273 C490.33469172 797.59663943 483.33933955 816.69126621 474.0625 833.98608398 C472.313708 837.17608308 472.313708 837.17608308 470.94140625 840.61499023 C469.16490119 844.65410869 467.03684996 848.27508402 464.68359375 851.99780273 C464.24587646 852.69558838 463.80815918 853.39337402 463.35717773 854.11230469 C460.22466684 859.0296249 456.84427438 863.62705493 453.0625 868.07202148 C451.25160913 870.33458952 449.86062858 872.70148451 448.37109375 875.18530273 C443.83680089 881.2489133 439.11617156 886.8108379 433.1953125 891.55249023 C431.24254926 893.20527109 431.24254926 893.20527109 429.4765625 895.59545898 C424.30339756 901.95873979 417.17169351 906.70308925 410.37109375 911.18530273 C409.36276233 912.07174794 408.36363166 912.96870879 407.37109375 913.87280273 C403.83691515 916.97617853 400.00078635 919.51338617 396.05859375 922.06030273 C395.43533203 922.46595459 394.81207031 922.87160645 394.16992188 923.28955078 C389.62220587 926.18530273 389.62220587 926.18530273 387.37109375 926.18530273 C387.37109375 926.84530273 387.37109375 927.50530273 387.37109375 928.18530273 C386.44425781 928.56041992 385.51742187 928.93553711 384.5625 929.32202148 C379.31930968 931.56910305 374.34077226 934.32015623 369.30859375 936.99780273 C356.11129591 943.92840695 343.20342412 949.49326948 328.82324219 953.48608398 C326.19453474 954.23564772 323.58412883 955.03405186 320.97265625 955.84155273 C310.05585504 959.18838369 299.10664967 962.07119454 287.93359375 964.43530273 C286.85368164 964.66918701 285.77376953 964.90307129 284.66113281 965.14404297 C280.91031569 965.90782485 277.14578533 966.55396079 273.37109375 967.18530273 C272.64590384 967.31203928 271.92071394 967.43877582 271.17354858 967.56935287 C248.64419467 971.34904121 225.78168895 970.62569907 203.02002203 970.60338354 C196.87317861 970.60067626 190.72637203 970.61534188 184.57954407 970.62782288 C173.9488643 970.64712186 163.31822547 970.6558692 152.68753242 970.65712357 C141.52987693 970.65851446 130.37225658 970.66659506 119.21461296 970.68317795 C118.51700153 970.68421295 117.8193901 970.68524795 117.10063892 970.68631432 C113.55618643 970.69161357 110.01173414 970.69703981 106.46728193 970.70252149 C81.41545068 970.7411031 56.36362197 970.76672982 31.31176758 970.78393555 C25.25677488 970.78810863 19.20178218 970.79229683 13.14678955 970.79656982 C12.39593719 970.79709957 11.64508482 970.79762932 10.87147936 970.79817512 C-6.55109808 970.810583 -23.97366903 970.82828143 -41.39624023 970.84741211 C-42.14230833 970.84822852 -42.88837643 970.84904494 -43.65705265 970.84988609 C-60.73106972 970.86859699 -77.80508466 970.88876783 -94.87909794 970.91066551 C-95.59918619 970.91158696 -96.31927445 970.91250841 -97.06118356 970.91345779 C-103.54339585 970.921754 -110.02560815 970.93005401 -116.50782014 970.93858938 C-133.28056808 970.96064597 -150.05330801 970.97847468 -166.82606763 970.98854218 C-177.36136297 970.99493026 -187.89665258 971.00455843 -198.43194329 971.01651074 C-204.48985317 971.02322385 -210.54775332 971.02836133 -216.60566711 971.0290966 C-247.73868636 971.02968656 -247.73868636 971.02968656 -278.8653717 971.59359741 C-280.17573314 971.62699081 -281.48609458 971.66038421 -282.83616394 971.69478953 C-312.83977239 972.65181752 -342.47950289 979.4197471 -370.37939453 990.33325195 C-373.38244729 991.47072256 -376.44223078 992.4061513 -379.50390625 993.37280273 C-392.10243528 997.82295306 -405.28651013 1004.7382775 -415.62890625 1013.18530273 C-417.515625 1014.16967773 -417.515625 1014.16967773 -419.31640625 1014.93530273 C-423.95203607 1017.12508596 -427.6358769 1020.27480725 -431.52734375 1023.57592773 C-433.62890625 1025.18530273 -433.62890625 1025.18530273 -435.62890625 1025.18530273 C-436.01175781 1026.08829102 -436.01175781 1026.08829102 -436.40234375 1027.00952148 C-437.76927521 1029.43430117 -438.98013062 1030.4260893 -441.25390625 1031.99780273 C-448.7430082 1037.42975459 -454.82832099 1043.33892243 -460.68481445 1050.47851562 C-463.50284875 1053.910717 -466.47459354 1057.05160645 -469.62890625 1060.18530273 C-473.04226199 1064.20185024 -476.25601455 1068.31853345 -478.81640625 1072.93530273 C-480.62890625 1076.18530273 -480.62890625 1076.18530273 -482.44921875 1078.40795898 C-485.06011304 1081.73474365 -487.17397395 1085.23384441 -489.31640625 1088.87280273 C-489.71923828 1089.54891602 -490.12207031 1090.2250293 -490.53710938 1090.92163086 C-492.67119676 1094.50467595 -492.67119676 1094.50467595 -494.62890625 1098.18530273 C-495.28890625 1098.18530273 -495.94890625 1098.18530273 -496.62890625 1098.18530273 C-496.87435181 1099.10496826 -496.87435181 1099.10496826 -497.12475586 1100.04321289 C-498.87967212 1106.28225304 -501.25514484 1111.800691 -504.19140625 1117.56030273 C-513.36665626 1136.27018234 -520.06165901 1155.94913028 -524.07568359 1176.38989258 C-524.66664841 1179.37601224 -525.29590997 1182.35252105 -525.9296875 1185.32983398 C-528.06017705 1195.46743293 -529.96318307 1205.60925825 -531.37890625 1215.87280273 C-531.49443848 1216.70811523 -531.6099707 1217.54342773 -531.72900391 1218.40405273 C-533.74588822 1233.95150694 -533.79605357 1249.44123408 -533.83422852 1265.09106445 C-533.84382185 1267.5955623 -533.85383276 1270.10005857 -533.86422729 1272.60455322 C-533.88557104 1277.97145941 -533.90404497 1283.33836339 -533.91983223 1288.70528793 C-533.9426623 1296.46470892 -533.97078593 1304.22410384 -534.00015151 1311.98350252 C-534.0476677 1324.57631106 -534.0909745 1337.16913035 -534.1315918 1349.76196289 C-534.17102846 1361.98592971 -534.21247389 1374.20988703 -534.2565918 1386.43383789 C-534.26067821 1387.56636601 -534.26067821 1387.56636601 -534.26484717 1388.72177349 C-534.27852799 1392.50993883 -534.292248 1396.29810402 -534.30598748 1400.08626914 C-534.41970094 1431.45259399 -534.52649428 1462.81893885 -534.62890625 1494.18530273 C-558.53485792 1494.25561963 -582.44079392 1494.30840145 -606.34682846 1494.34073925 C-617.44870222 1494.35615839 -628.55051144 1494.37715235 -639.65234375 1494.41162109 C-649.33723188 1494.44167601 -659.02207322 1494.46091365 -668.70700669 1494.46756822 C-673.82735126 1494.47145341 -678.94756209 1494.48047887 -684.06786346 1494.5024929 C-688.90398598 1494.52311335 -693.73992183 1494.5290859 -698.57608414 1494.52462578 C-700.33505651 1494.52543971 -702.09403626 1494.53125115 -703.85297012 1494.54291916 C-720.4128725 1494.64722369 -736.56897271 1492.70926671 -752.56640625 1488.31030273 C-753.53022217 1488.05273193 -754.49403809 1487.79516113 -755.48706055 1487.52978516 C-761.81421325 1485.79790224 -767.87811518 1483.76619669 -773.94140625 1481.25561523 C-776.42993233 1480.26454526 -778.85253094 1479.54556967 -781.44140625 1478.87280273 C-793.49676194 1475.40321256 -806.77105677 1468.12980969 -816.73046875 1460.59545898 C-818.53615908 1459.25419518 -820.21087315 1458.35684107 -822.25390625 1457.43530273 C-829.63560586 1453.83413713 -835.91469641 1449.04988651 -841.62890625 1443.18530273 C-842.88529617 1442.20811058 -844.15771604 1441.25134449 -845.44140625 1440.31030273 C-851.0328328 1436.19030423 -856.28033948 1431.8971894 -860.75390625 1426.56030273 C-864.68198383 1421.89228496 -869.19100897 1417.887123 -873.74267578 1413.84106445 C-877.06266068 1410.84222126 -879.4803286 1408.16342681 -881.62890625 1404.18530273 C-884.57172901 1400.11277076 -887.59194718 1396.19697012 -891.19140625 1392.68530273 C-895.93179735 1387.82336315 -899.23544913 1381.93401143 -902.5234375 1376.02905273 C-903.82904882 1373.85149605 -905.27712277 1371.81323417 -906.75390625 1369.74780273 C-919.86429212 1351.20071257 -919.86429212 1351.20071257 -923.52734375 1340.89624023 C-925.01642199 1337.23162924 -926.91948934 1333.83981499 -928.81640625 1330.37280273 C-932.37925923 1323.79842876 -935.55076003 1317.11767614 -938.50390625 1310.24780273 C-939.05727661 1308.97102661 -939.05727661 1308.97102661 -939.62182617 1307.66845703 C-941.73020998 1302.68328558 -943.44249961 1297.6962642 -944.94042969 1292.49658203 C-945.89780027 1289.28260072 -947.09725474 1286.18328682 -948.31640625 1283.06030273 C-961.45994836 1248.71804448 -961.45994836 1248.71804448 -964.5 1231.30639648 C-965.31009785 1226.73011514 -966.27725213 1222.20356945 -967.328125 1217.67749023 C-971.11588547 1201.31232284 -974.54612842 1184.93215926 -977.37890625 1168.37280273 C-977.51525482 1167.5873407 -977.65160339 1166.80187866 -977.79208374 1165.99261475 C-982.41313968 1139.21764205 -985.27001445 1112.50854951 -986.69871521 1085.39775467 C-986.81859279 1083.1441984 -986.9427632 1080.89091602 -987.0682373 1078.63766479 C-988.35556665 1055.49581963 -989.38305854 1032.3643288 -989.62890625 1009.18530273 C-989.64405273 1008.16533203 -989.65919922 1007.14536133 -989.67480469 1006.09448242 C-989.76523778 999.78842839 -989.72368393 993.49104311 -989.62890625 987.18530273 C-989.61633789 986.00226562 -989.60376953 984.81922852 -989.59082031 983.6003418 C-989.0523776 938.93157363 -987.29376285 893.25440595 -979.62890625 849.18530273 C-979.43941406 848.09001251 -979.43941406 848.09001251 -979.24609375 846.97259521 C-975.74632169 826.88626422 -971.34985235 807.04712838 -966.38671875 787.27514648 C-965.39906291 783.34035423 -964.43406628 779.41384064 -963.62109375 775.43920898 C-959.71633999 756.61677947 -952.19260378 738.33115014 -944.97558594 720.5546875 C-943.67665893 717.30477967 -942.45361211 714.03542717 -941.25390625 710.74780273 C-936.98281222 699.59093853 -931.19436125 689.06386107 -925.46875 678.59936523 C-924.11426665 676.08595026 -922.79815391 673.56712734 -921.5078125 671.02124023 C-917.48223941 663.13129316 -913.31877256 656.05157884 -907.81640625 649.08764648 C-905.4911645 646.00254895 -903.5335824 642.82125463 -901.56640625 639.49780273 C-898.65252532 634.65477138 -895.53965185 630.53440164 -891.68359375 626.41577148 C-889.44382573 623.98438833 -887.38405886 621.45184985 -885.31640625 618.87280273 C-873.75489088 604.6584739 -861.00388997 591.55014029 -846.62890625 580.18530273 C-844.64729783 578.56328122 -842.6680939 576.93831736 -840.69140625 575.31030273 C-836.44022058 571.81669213 -832.3877436 568.49436142 -827.50390625 565.93530273 C-824.18047935 564.12546248 -821.1242436 562.16293466 -818.06640625 559.93530273 C-799.50072228 546.77986409 -778.00653975 538.57678005 -756.62890625 531.18530273 C-755.91331543 530.9376416 -755.19772461 530.68998047 -754.46044922 530.43481445 C-746.89317953 527.85304009 -739.4616902 525.75185096 -731.5078125 524.71655273 C-728.29060227 524.27592777 -725.10553302 523.76781381 -721.90625 523.21655273 C-720.86533203 523.03745361 -719.82441406 522.85835449 -718.75195312 522.67382812 C-716.68634747 522.31652647 -714.62120989 521.95650399 -712.55664062 521.59326172 C-711.57888672 521.42640869 -710.60113281 521.25955566 -709.59375 521.08764648 C-708.30392212 520.86322876 -708.30392212 520.86322876 -706.98803711 520.63427734 C-697.69147651 519.39171793 -688.44967225 519.04202271 -679.07961655 519.07787228 C-677.26326194 519.07867407 -677.26326194 519.07867407 -675.41021329 519.07949206 C-672.07005304 519.08198619 -668.72995937 519.08900036 -665.38981408 519.09797575 C-661.74819711 519.10662548 -658.10657476 519.1093257 -654.46494985 519.11279732 C-648.08971607 519.11968624 -641.71449728 519.13033371 -635.33927345 519.14347267 C-625.85962028 519.16299249 -616.37996492 519.17665549 -606.90030018 519.18913445 C-590.95227131 519.2102934 -575.0042534 519.23617833 -559.05623627 519.2647686 C-543.26860609 519.29305585 -527.48097473 519.31923529 -511.69333649 519.3426075 C-510.7112415 519.34406258 -509.7291465 519.34551767 -508.71729106 519.34701685 C-503.72960676 519.35439573 -498.74192241 519.36173703 -493.75423804 519.36906386 C-458.43820252 519.42101015 -423.12217598 519.47767056 -387.80615234 519.53710938 C-353.49984074 519.59483799 -319.19352675 519.6504275 -284.88720703 519.703125 C-283.8294997 519.70475058 -282.77179238 519.70637616 -281.68203331 519.70805101 C-271.05997826 519.7243736 -260.43792315 519.74065275 -249.81586799 519.75690007 C-228.17804653 519.78999791 -206.54022552 519.8233857 -184.90240479 519.85694885 C-183.41013853 519.85926302 -183.41013853 519.85926302 -181.88772549 519.86162394 C-130.42170171 519.94146188 -78.95568507 520.02560449 -27.4896698 520.11073303 C-26.76576721 520.11193039 -26.04186462 520.11312775 -25.29602558 520.11436139 C-11.07365228 520.13789341 3.1487207 520.1616163 17.37109375 520.18530273 C17.37109375 497.41530273 17.37109375 474.64530273 17.37109375 451.18530273 C-143.33890625 451.18530273 -304.04890625 451.18530273 -469.62890625 451.18530273 C-471.04560787 197.59571347 -471.04560787 197.59571347 -465.81640625 180.99780273 C-465.55359863 180.1426709 -465.29079102 179.28753906 -465.02001953 178.40649414 C-463.29900315 172.94224117 -461.31145445 167.72568945 -458.78515625 162.57592773 C-457.55353477 160.02946711 -456.52223701 157.44870516 -455.50390625 154.81030273 C-454.153355 151.39035843 -452.81874912 148.1714521 -450.62890625 145.18530273 C-449.96890625 145.18530273 -449.30890625 145.18530273 -448.62890625 145.18530273 C-448.41234375 144.53174805 -448.19578125 143.87819336 -447.97265625 143.20483398 C-446.14394187 139.09554265 -443.68177538 135.56357865 -441.12890625 131.87280273 C-440.63003906 131.13223633 -440.13117187 130.39166992 -439.6171875 129.62866211 C-439.13636719 128.9293457 -438.65554688 128.2300293 -438.16015625 127.50952148 C-437.50370117 126.55178833 -437.50370117 126.55178833 -436.83398438 125.57470703 C-436.43630859 125.11620361 -436.03863281 124.6577002 -435.62890625 124.18530273 C-434.96890625 124.18530273 -434.30890625 124.18530273 -433.62890625 124.18530273 C-433.37294678 123.60337158 -433.1169873 123.02144043 -432.85327148 122.421875 C-431.5107049 119.96938198 -430.02957003 118.35811711 -428.0390625 116.40014648 C-427.33716797 115.70469727 -426.63527344 115.00924805 -425.91210938 114.29272461 C-425.17927734 113.57665039 -424.44644531 112.86057617 -423.69140625 112.12280273 C-422.96244141 111.40286133 -422.23347656 110.68291992 -421.48242188 109.94116211 C-420.12604626 108.60219186 -418.76762442 107.26528895 -417.40649414 105.93115234 C-416.28897798 104.83358909 -415.18007794 103.72711201 -414.08398438 102.6081543 C-411.60135366 100.18050802 -408.80699533 98.12311274 -406.06640625 95.99780273 C-401.77869071 92.66549007 -397.54847031 89.29046351 -393.37890625 85.81030273 C-389.57543044 82.75393825 -385.78778535 80.63662457 -381.37890625 78.58374023 C-378.0629743 76.89751348 -374.98286767 74.91316 -371.87890625 72.87280273 C-353.21993591 60.6810504 -353.21993591 60.6810504 -344.16796875 58.06420898 C-340.70560911 56.86569988 -337.47715824 55.22971181 -334.19140625 53.62280273 C-326.70523402 50.00716631 -319.06728089 46.8757623 -311.31640625 43.87280273 C-309.7077771 43.24233032 -309.7077771 43.24233032 -308.06665039 42.59912109 C-302.03085052 40.29086494 -296.05761006 38.4410328 -289.77075195 36.95654297 C-284.40996646 35.64061155 -279.13639599 34.02453501 -273.84542847 32.45489502 C-259.86316523 28.31613295 -245.82592966 24.52544638 -231.62890625 21.18530273 C-230.92507813 21.01804687 -230.22125 20.85079102 -229.49609375 20.6784668 C-223.36212689 19.23499788 -217.26099955 18.09402238 -211.0078125 17.31420898 C-204.97535551 16.53771702 -198.97428579 15.62019665 -192.97265625 14.63452148 C-151.26616089 7.81739144 -109.48266192 3.53766742 -67.28155518 1.32632446 C-65.55976073 1.23478938 -63.83817799 1.13914474 -62.11688232 1.03866577 C-41.43261349 -0.15841138 -20.71090454 -0.00204823 0 0 Z M-298.62890625 163.18530273 C-299.96501953 163.73637695 -299.96501953 163.73637695 -301.328125 164.29858398 C-311.48178859 168.79497285 -320.09311342 177.16442145 -327.62890625 185.18530273 C-327.62890625 185.84530273 -327.62890625 186.50530273 -327.62890625 187.18530273 C-329.11390625 187.68030273 -329.11390625 187.68030273 -330.62890625 188.18530273 C-332.96910882 191.64853355 -334.72582756 195.46766065 -336.62890625 199.18530273 C-337.22445312 200.26811523 -337.82 201.35092773 -338.43359375 202.46655273 C-348.95470255 222.15412114 -351.3865249 245.67898847 -345.0234375 267.25561523 C-336.76726296 291.88232257 -319.58377529 310.53646847 -296.62890625 322.18530273 C-275.37401548 332.36555364 -251.66547685 332.24417985 -229.6015625 324.74389648 C-223.16476205 322.36100461 -217.45116654 318.7786732 -211.62890625 315.18530273 C-210.41967376 314.53221238 -209.21003299 313.87987748 -208 313.22827148 C-204.73430347 311.24917614 -202.70908304 309.44819267 -200.25390625 306.56030273 C-197.95132473 303.8805065 -195.66491987 301.22319329 -193.23046875 298.66186523 C-188.05272655 293.20889422 -184.53981397 288.10231119 -181.62890625 281.18530273 C-181.12488281 280.05092773 -180.62085938 278.91655273 -180.1015625 277.74780273 C-169.52892451 253.3355009 -170.796268 229.32518365 -180.13525391 204.82617188 C-183.7926449 195.87923116 -188.78446508 187.93789292 -196.62890625 182.18530273 C-199.12156575 179.75343981 -201.54469889 177.27406185 -203.94140625 174.74780273 C-209.52487785 169.42402748 -214.8704711 165.78286038 -222.1328125 163.11889648 C-224.49772478 162.23436748 -226.72834097 161.21326349 -229.00390625 160.12280273 C-251.60743424 149.9612167 -276.74544359 153.27532954 -298.62890625 163.18530273 Z " fill="#3672A4" transform="translate(1901.62890625,76.814697265625)"/>
</svg>
